PathFileType	4	(X/Y/Z)	13_1_52_p1_0-302_filt_butterworth.trc
DataRate	CameraRate	NumFrames	NumMarkers	Units	OrigDataRate	OrigDataStartFrame	OrigNumFrames
60.0	60.0	7	27	m	60.0	75	302
Frame#	Time	RHip			RKnee			RAnkle			RBigToe			RSmallToe			RHeel			LHip			LKnee			LAnkle			LBigToe			LSmallToe			LHeel			Neck			Head			Nose			RShoulder			RElbow			RWrist			RThumb			RIndex			RPinky			LShoulder			LElbow			LWrist			LThumb			LIndex			LPinky			
		X1	Y1	Z1	X2	Y2	Z2	X3	Y3	Z3	X4	Y4	Z4	X5	Y5	Z5	X6	Y6	Z6	X7	Y7	Z7	X8	Y8	Z8	X9	Y9	Z9	X10	Y10	Z10	X11	Y11	Z11	X12	Y12	Z12	X13	Y13	Z13	X14	Y14	Z14	X15	Y15	Z15	X16	Y16	Z16	X17	Y17	Z17	X18	Y18	Z18	X19	Y19	Z19	X20	Y20	Z20	X21	Y21	Z21	X22	Y22	Z22	X23	Y23	Z23	X24	Y24	Z24	X25	Y25	Z25	X26	Y26	Z26	X27	Y27	Z27	
75	1.25	0.28549598397073084	0.9712060948026786	0.7640164579822354	0.2726356436687055	0.9209407194492298	1.1182330100610278	0.2667214077737368	1.2782428248919466	1.4356940813575143	0.26438847884350897	1.0446389923570625	1.4582429397143288	0.3292616614633068	1.093228826798554	1.4476422813495025	0.25378660141575254	1.3976419727812268	1.476061373508739	0.06334989737024735	0.9656886119300712	0.757693656578495	0.06408890738137578	0.9043630177247042	1.1003534105800088	0.07263504071858774	1.2158230929563623	1.4114218050174332	0.10176189207745648	0.9738977184362538	1.4479770228799194	0.0662849564032945	1.0000504614755708	1.4356368606261913	0.07998629672077855	1.2769155285196112	1.438761680281656	0.16267873599472993	0.5853383798063483	0.3542884395309563	0.16589092374955688	0.4459152025039052	0.1574589891039248	0.17180183353395506	0.3972999719681957	0.296735479560707	0.32159932083095344	0.6520040594579058	0.41468755503842786	0.3930491990781501	0.8694313743621409	0.6142495948076085	0.33416683498644045	0.8418760333809066	0.8275612142306826	0.28158951923971903	0.7769056882363131	0.9213534222662744	0.29326289164680625	0.7942478049092996	0.9363668662171827	0.33273522658060356	0.8637376304279079	0.9379444280595766	0.017293899083579544	0.6755076591731486	0.3947862901753931	-0.0072988297358897196	0.9109614559258692	0.5997068780442572	-0.0017964884114713313	0.8506809386475745	0.8049046828436686	0.015751315740448878	0.8182216956549739	0.87674351288447	-0.017104989195925707	0.8100654268932033	0.914997466033231	-0.018672688643546657	0.8848506236873672	0.9127579090836023
76	1.2666666666666666	0.28581050270862257	0.9694080370463037	0.768129449123401	0.2715174110793858	0.9190061902432337	1.1197988085550374	0.2668068639130836	1.2742864783371863	1.4333137659549926	0.2634252199589324	1.051891796702803	1.4592111607750655	0.32689436273839717	1.088804022610239	1.446242085115708	0.2536404890727034	1.3958103631994132	1.4741081565302545	0.06162377755529511	0.9648733966365841	0.7606595903321133	0.06548006620329445	0.9058704051218889	1.1020955198990219	0.07278166339293149	1.215625357583034	1.4117032486054237	0.10211920011264498	0.9730036653384551	1.4456647220738479	0.06557659837882694	0.9947765904667099	1.4348432573591339	0.08195953209185727	1.276946815500991	1.4387739537585966	0.16546387805106558	0.5846341448092236	0.35423698058305353	0.16654146492834956	0.4444104063592359	0.157171211054061	0.1732674906673452	0.3971038258901627	0.29723796859127	0.32203576013010454	0.6522969701231469	0.4147072550342608	0.3945734742320714	0.8661347548413716	0.6143784342953883	0.3383352787292027	0.818298961794518	0.8258739303386432	0.2862129859857463	0.7633210989761363	0.9175291913256279	0.3022862706565352	0.7742429313432264	0.9297538441551797	0.33489229213554805	0.836043884544844	0.9317773432165329	0.02011501060655348	0.6740502193973706	0.39534001244641664	-0.015677405163295792	0.9057902570979313	0.5991368746963437	-0.012409385012653545	0.8352061463008449	0.8001482905264911	-0.005442912803389666	0.7985862855383411	0.8739359286358556	-0.032042461790044226	0.7771434026809574	0.9051895980464554	-0.038966026273087345	0.8594275084036185	0.9031339024541413
77	1.2833333333333334	0.28731641920638284	0.9632819312101881	0.7690128164466231	0.2710990659200836	0.9139175400073101	1.1205937888574862	0.26641812889030964	1.265991646849982	1.4295290951886463	0.26293838989442425	1.0592708485184545	1.4603153278190104	0.32543811579904014	1.0862139640338853	1.4447685382936202	0.2527838986444034	1.39042177889095	1.47150282069236	0.06224922194561719	0.960573213203276	0.7634047440646798	0.06636372763333953	0.9045407439460552	1.1036800424285294	0.0730063335485898	1.2155086698179354	1.4116307628307037	0.10207829432769033	0.9723851757425059	1.444229128599477	0.06507317288272187	0.9905618096597434	1.4343941007639236	0.08409332414926879	1.2778026144270462	1.4393982346690528	0.1672368000595763	0.5830683928880613	0.3538399571050434	0.16857337650838597	0.43994444659652465	0.1553162492583077	0.17428907576204333	0.39727657934030813	0.2954771013157932	0.3217138448967477	0.6527399434103016	0.410571978590746	0.3967569931911326	0.8640706044000506	0.6094487369904754	0.3465141995553223	0.7860085669316188	0.819258630386764	0.29716922450236727	0.7375088097781608	0.9080722822661553	0.3160296411873987	0.7425834193175084	0.9172944808815502	0.3412923567518756	0.7959330801010952	0.9206424132935331	0.02202732469267193	0.6712674600547319	0.3915054354719259	-0.023922690159675013	0.8931237736207747	0.5940298115110862	-0.02556375592576756	0.8128113691756729	0.79017712343176	-0.02654127257907479	0.7627143532571872	0.8646158020712095	-0.04835514905154274	0.7418292413055131	0.8901960518998739	-0.06323738156222994	0.8308748321332193	0.8897572546462507
78	1.3	0.2889994541302068	0.9552775653666232	0.7665067955211228	0.2710017902856387	0.9080769616357737	1.1205377713977944	0.26537161679791327	1.2574547830918739	1.4265710528361475	0.26262412101658494	1.0618925887110442	1.460728902663563	0.32464740171635353	1.0839092776152477	1.443886016565216	0.2520268725481957	1.385745507747263	1.4704094693473124	0.06430201892318646	0.953283418465871	0.7642502232384111	0.06665086577919897	0.9016835461203971	1.104965235471756	0.0731965492596102	1.215633643356335	1.4115291969721904	0.10198376222663626	0.9719130619759792	1.4438309364369513	0.06493742868937574	0.9888926928403516	1.4344642340781706	0.08586274510986103	1.2808822273125589	1.4410552581119087	0.1684069472135228	0.5811143628623567	0.3516999899430426	0.17169428567581793	0.43245193763639717	0.15192919412931177	0.17500460381204022	0.3975336849576059	0.29056519720034857	0.3209907733270196	0.6524637751760455	0.40263626347292053	0.39927779116157974	0.8630517280582946	0.5996716127158424	0.35749839141038603	0.7528403220147226	0.8046865674416683	0.3123537762067919	0.7008796111656498	0.890874256976885	0.3301291342357404	0.7036002546782907	0.8977233210265197	0.3505260457602956	0.7519314759509247	0.9026625682864844	0.022981485274535453	0.6659168584245935	0.38476782328949993	-0.03243149908267107	0.8787430140341794	0.5840451754481415	-0.0436765407779148	0.7877988659909133	0.7737227696073998	-0.04716911991660847	0.7152630385003363	0.8449235757940206	-0.06575762265121605	0.6988920607741654	0.8671824483172631	-0.08772316794488859	0.7997864459865469	0.869459870425478
79	1.3166666666666669	0.28967419703523517	0.9505587357109248	0.7625885890230972	0.27072988866608366	0.905877167070333	1.1200897268180634	0.2640143791444102	1.253675250524629	1.4263244009800273	0.2622242117573219	1.0581634551833992	1.4601741743129717	0.32413324874802024	1.0821865707103424	1.443983333891745	0.25166635108540225	1.3843550907841105	1.4714024121989115	0.06595116288626737	0.947799717271891	0.7616635372720082	0.06619658641679514	0.9010535878547351	1.1058581656741782	0.0732539046801811	1.215974064911511	1.4115474072762093	0.10183542145506748	0.9715840922842238	1.4439363606987607	0.06491412821559323	0.9904900205918163	1.435102861314151	0.08708360694458267	1.2869460911265862	1.4435648121868143	0.16976748215828402	0.5796950685118969	0.3460119609280447	0.17478125541096282	0.4230811541233437	0.14650049911717514	0.1753150986909141	0.39762558993367175	0.28236242602825423	0.3204999065687857	0.6509320490972752	0.39157627167190256	0.40271913631886025	0.8590987263520034	0.5870598027592006	0.3704926319105454	0.7243190091729629	0.7792002178636254	0.3277062197182453	0.6548443945091128	0.8633970199442713	0.34133907739117353	0.6584169041403489	0.8683814067524358	0.36130118761927743	0.7083943214268595	0.8744137412838883	0.0233562733739354	0.6587848927702321	0.37709976022802066	-0.040754931094479876	0.8664263590761816	0.569946370852578	-0.06600336803063074	0.7631660704378824	0.7484092620393803	-0.0663630901760449	0.6599832667959282	0.8126127783881091	-0.0842168654018098	0.6471940348034492	0.832699365083215	-0.10927266912387892	0.7601117030698801	0.8388510886187883
80	1.3333333333333333	0.2890554741655656	0.9523194672502936	0.7591363737645748	0.2703487470018737	0.9087695468353624	1.118635428057341	0.2628367165684634	1.2546785696627147	1.4283160330339595	0.26170466646761864	1.0492331861002873	1.4587077943080136	0.32349022355869606	1.0809353911872301	1.4448489001599287	0.251898815742041	1.3856525753203033	1.4734589283552433	0.06634999090716125	0.9477102926511815	0.7553025758251192	0.06487855303408507	0.9059079584549513	1.1058935440135198	0.07316719520881995	1.2163557635691575	1.4116627295447837	0.10130943380163535	0.9723923685375847	1.4440134512052398	0.06440474318917458	0.9961893836631289	1.436283268612216	0.0878348545841435	1.2938386136987072	1.4450096227802731	0.17160332761178212	0.5790224526608025	0.3357771836842476	0.17686788307671003	0.41417965104308907	0.13840186045126007	0.17514762467898962	0.39754585066140175	0.2710578522615426	0.3209830377015007	0.6481052675064404	0.3782014661633306	0.4085015178588759	0.8468569512118947	0.572701596527293	0.3850248723281848	0.6982350525718433	0.7433135356053895	0.34172889685908936	0.5989424664706993	0.8230446972180104	0.3506368935578401	0.6044932901950442	0.8274077810289202	0.373583392327374	0.6593740705490415	0.8354379474638322	0.023628215630716903	0.6529832436125211	0.3691334030006976	-0.047376327031977986	0.8558377354906641	0.5531055480101787	-0.08792714908380063	0.7355497857729496	0.7139543318520112	-0.08370920872823112	0.6051410173756578	0.7677464873674117	-0.10352993573910667	0.5951969799997028	0.784771796907564	-0.12716306554082354	0.7096131470244037	0.7979523604270743
81	1.35	0.2879871904161426	0.9576321358882203	0.7547835327820893	0.27026804431032264	0.9146924993371355	1.1143220569746228	0.26191680282731733	1.25797169790128	1.4307537277423101	0.261151984666555	1.0394356807483178	1.4566920672455383	0.32238094424610886	1.078083521315676	1.4455373877604143	0.25300887525892746	1.3894953243029085	1.4762844594693025	0.06628001769304732	0.9499169941063106	0.7457914903100035	0.06350814014302435	0.9152518563242855	1.1037263563803639	0.07297695564619053	1.2165912934746752	1.4118025809941879	0.10015777396273022	0.9756908461906054	1.4437859539851985	0.06300598395840039	1.0052065583900338	1.4377096698682792	0.08850021523462621	1.298220620532352	1.4434337849023517	0.173303955393717	0.5785264626266691	0.32127957554272885	0.1775072083421821	0.4082698533942225	0.1267416776875812	0.17458855906378706	0.39788177771992495	0.2567219765525888	0.32255963019290834	0.6432725620496629	0.36373831993958267	0.41681251553790294	0.8253692464271428	0.5554800285523318	0.40024477871342223	0.6680279130871478	0.7008562767787907	0.356217669125624	0.5410400723518498	0.7684469609167123	0.36129463599833034	0.5459090985200614	0.7745060648100547	0.38733617577197127	0.6016885368320812	0.7880248963911662	0.023945277779357035	0.6506714404100823	0.3598044334600442	-0.05255960050551605	0.8428389164488022	0.5342793730958425	-0.10582994209378253	0.7008996499316373	0.6718454806011581	-0.09946003957550342	0.5649992642975211	0.7121087144841691	-0.12278423266356836	0.5552114139986687	0.7237581805304991	-0.14250803033564474	0.6541478646515191	0.7486348226648787
